<svg xmlns="http://www.w3.org/2000/svg" width="130" height="130" viewBox="0 0 130 130">
  <g id="Polygon_2" data-name="Polygon 2" transform="translate(0 130) rotate(-90)" fill="none">
    <path d="M86.993,0A17,17,0,0,1,102.2,9.4l24,48a17,17,0,0,1,0,15.205l-24,48A17,17,0,0,1,86.993,130H43.007A17,17,0,0,1,27.8,120.6l-24-48A17,17,0,0,1,3.8,57.4l24-48A17,17,0,0,1,43.007,0Z" stroke="none"/>
    <path d="M 43.00657653808594 1 C 40.03304290771484 1 37.12432861328125 1.8262939453125 34.59487915039062 3.389579772949219 C 32.06544494628906 4.952865600585938 30.02555847167969 7.184967041015625 28.69576263427734 9.844581604003906 L 4.69573974609375 57.84458160400391 C 3.590675354003906 60.05470275878906 3.006576538085938 62.52899932861328 3.006576538085938 64.99998474121094 C 3.006576538085938 67.47097778320312 3.590675354003906 69.94528198242188 4.69573974609375 72.1553955078125 L 28.69573974609375 120.1554183959961 C 30.02554321289062 122.8150329589844 32.06542205810547 125.0471343994141 34.59487915039062 126.6104202270508 C 37.12430572509766 128.1737060546875 40.03302764892578 129 43.00657653808594 129 L 86.99342346191406 129 C 89.96696472167969 129 92.87567138671875 128.1737060546875 95.40510559082031 126.6104202270508 C 97.93455505371094 125.0471343994141 99.97444152832031 122.8150329589844 101.3042449951172 120.1554183959961 L 125.3042449951172 72.15541839599609 C 126.409309387207 69.94529724121094 126.993408203125 67.47100067138672 126.993408203125 65 C 126.993408203125 62.52899932861328 126.409309387207 60.05470275878906 125.3042449951172 57.84458160400391 L 101.3042449951172 9.844581604003906 C 99.97444152832031 7.184967041015625 97.93455505371094 4.952865600585938 95.40512084960938 3.389579772949219 C 92.87567138671875 1.8262939453125 89.96696472167969 1 86.993408203125 1 L 43.00657653808594 1 M 43.00657653808594 0 L 86.993408203125 0 C 93.43255615234375 0 99.31900787353516 3.638031005859375 102.1986770629883 9.397369384765625 L 126.1986770629883 57.39736938476562 C 128.5916595458984 62.18333435058594 128.5916595458984 67.81666564941406 126.1986770629883 72.60263061523438 L 102.1986770629883 120.6026306152344 C 99.31900787353516 126.3619689941406 93.43254089355469 130 86.99342346191406 130 L 43.00657653808594 130 C 36.56744384765625 130 30.68097686767578 126.3619689941406 27.80130767822266 120.6026306152344 L 3.801307678222656 72.60261535644531 C 1.4083251953125 67.816650390625 1.4083251953125 62.18333435058594 3.801307678222656 57.39736938476562 L 27.80132293701172 9.397369384765625 C 30.68097686767578 3.638031005859375 36.56745910644531 0 43.00657653808594 0 Z" stroke="none" fill="#c6c6c6"/>
  </g>
</svg>
